HIERARCHY
ROOT Hips
{
	OFFSET 0.000000 0.000000 0.000000
	CHANNELS 6 Xposition Yposition Zposition Xrotation Yrotation Zrotation
	JOINT LeftUpLeg_virtual
	{
		OFFSET 0.000000 0.000000 0.000000
		CHANNELS 3 Xrotation Yrotation Zrotation
		JOINT LeftUpLeg
		{
			OFFSET 10.205400 -3.823500 0.155100
			CHANNELS 3 Xrotation Yrotation Zrotation
			JOINT LeftLeg
			{
				OFFSET 0.708757 -12.982077 0.567790
				CHANNELS 3 Xrotation Yrotation Zrotation
				JOINT LeftFoot
				{
					OFFSET -0.708756 -10.717838 -2.184338
					CHANNELS 3 Xrotation Yrotation Zrotation
					JOINT LeftToeBase
					{
						OFFSET 0.108149 -7.191104 7.560241
						CHANNELS 3 Xrotation Yrotation Zrotation
						JOINT LeftToe_End
						{
							OFFSET 0.070230 0.081724 4.490308
							CHANNELS 3 Xrotation Yrotation Zrotation
							End Site
							{
								OFFSET 0 0 0
							}
						}
					}
				}
			}
		}
	}
	JOINT RightUpLeg_virtual
	{
		OFFSET 0.000000 0.000000 0.000000
		CHANNELS 3 Xrotation Yrotation Zrotation
		JOINT RightUpLeg
		{
			OFFSET -10.205400 -3.823500 0.005500
			CHANNELS 3 Xrotation Yrotation Zrotation
			JOINT RightLeg
			{
				OFFSET -0.708756 -12.982134 0.610632
				CHANNELS 3 Xrotation Yrotation Zrotation
				JOINT RightFoot
				{
					OFFSET 0.708754 -10.717769 -1.945823
					CHANNELS 3 Xrotation Yrotation Zrotation
					JOINT RightToeBase
					{
						OFFSET -0.108140 -7.191069 7.372968
						CHANNELS 3 Xrotation Yrotation Zrotation
						JOINT RightToe_End
						{
							OFFSET -0.070227 0.081735 4.479403
							CHANNELS 3 Xrotation Yrotation Zrotation
							End Site
							{
								OFFSET 0 0 0
							}
						}
					}
				}
			}
		}
	}
	JOINT Spine_virtual
	{
		OFFSET 0.000000 0.000000 0.000000
		CHANNELS 3 Xrotation Yrotation Zrotation
		JOINT Spine
		{
			OFFSET 0.000000 6.876099 0.125700
			CHANNELS 3 Xrotation Yrotation Zrotation
			JOINT Spine1
			{
				OFFSET 0.000000 5.730043 0.104720
				CHANNELS 3 Xrotation Yrotation Zrotation
				JOINT Spine1_split
				{
					OFFSET 0.000000 5.730043 0.104720
					CHANNELS 3 Xrotation Yrotation Zrotation
					JOINT Spine2
					{
						OFFSET 0.000000 5.730043 0.104720
						CHANNELS 3 Xrotation Yrotation Zrotation
						JOINT Neck_virtual
						{
							OFFSET 0.000000 0.000000 0.000000
							CHANNELS 3 Xrotation Yrotation Zrotation
							JOINT Neck
							{
								OFFSET 0.000000 10.314075 0.188496
								CHANNELS 3 Xrotation Yrotation Zrotation
								JOINT Head
								{
									OFFSET 0.000000 7.643700 -2.377400
									CHANNELS 3 Xrotation Yrotation Zrotation
									JOINT HeadTop_End
									{
										OFFSET 0.000000 43.788605 -13.619600
										CHANNELS 3 Xrotation Yrotation Zrotation
										End Site
										{
											OFFSET 0 0 0
										}
									}
								}
							}
						}
						JOINT LeftShoulder_virtual
						{
							OFFSET 0.000000 0.000000 0.000000
							CHANNELS 3 Xrotation Yrotation Zrotation
							JOINT LeftShoulder
							{
								OFFSET 2.196100 4.412489 0.087492
								CHANNELS 3 Xrotation Yrotation Zrotation
								JOINT LeftShoulder_split
								{
									OFFSET 2.196100 4.412489 0.087492
									CHANNELS 3 Xrotation Yrotation Zrotation
									JOINT LeftArm
									{
										OFFSET 8.771219 -2.981674 -0.026999
										CHANNELS 3 Xrotation Yrotation Zrotation
										JOINT LeftForeArm
										{
											OFFSET 8.512804 0.000000 -0.000000
											CHANNELS 3 Xrotation Yrotation Zrotation
											JOINT LeftHand
											{
												OFFSET 18.484802 0.000000 -0.000000
												CHANNELS 3 Xrotation Yrotation Zrotation
												End Site
												{
													OFFSET 0 0 0
												}
											}
										}
									}
								}
							}
						}
						JOINT RightShoulder_virtual
						{
							OFFSET 0.000000 0.000000 0.000000
							CHANNELS 3 Xrotation Yrotation Zrotation
							JOINT RightShoulder
							{
								OFFSET -2.196100 4.412496 0.070690
								CHANNELS 3 Xrotation Yrotation Zrotation
								JOINT RightShoulder_split
								{
									OFFSET -2.196100 4.412496 0.070690
									CHANNELS 3 Xrotation Yrotation Zrotation
									JOINT RightArm
									{
										OFFSET -8.771282 -2.981682 -0.094208
										CHANNELS 3 Xrotation Yrotation Zrotation
										JOINT RightForeArm
										{
											OFFSET -8.494598 0.000000 0.000000
											CHANNELS 3 Xrotation Yrotation Zrotation
											JOINT RightHand
											{
												OFFSET -18.483803 0.000000 0.000001
												CHANNELS 3 Xrotation Yrotation Zrotation
												End Site
												{
													OFFSET 0 0 0
												}
											}
										}
									}
								}
							}
						}
					}
				}
			}
		}
	}
}
MOTION
Frames: 4
Frame Time: 0.03333333
-1.403936 31.106152 0.606838 0.000000 0.000000 0.000000 -3.173801 -6.055495 5.153626 -70.480340 5.635756 6.519036 56.451210 0.447726 -4.817050 5.246901 -0.772103 0.535778 -1.242531 0.000001 0.000001 0.000000 0.000000 0.000000 -3.173801 -6.055495 5.153626 -10.990276 -7.395965 -6.480976 57.076674 8.202550 3.596638 -42.665067 3.868509 -9.153733 -5.454187 0.000040 0.000004 0.000000 0.000000 0.000000 -3.173801 -6.055495 5.153626 13.730720 -0.099228 -4.128863 2.722913 0.133859 -0.943517 0.000000 0.000000 0.000000 0.000000 0.000000 0.000000 2.720021 0.135222 -0.952573 2.743908 0.369061 0.041968 21.918277 4.192715 -0.129340 0.000000 0.000000 0.000000 2.720021 0.135222 -0.952573 0.619247 -1.200864 -10.994841 0.000000 0.000000 0.000000 17.248876 -24.148520 -54.371595 0.000010 -28.855370 0.000011 0.000000 0.000000 0.000000 2.720021 0.135222 -0.952573 0.265377 6.336866 17.304025 0.000000 0.000000 0.000000 14.561902 17.232550 47.386063 -0.000008 42.148981 0.000007 0.000000 0.000000 0.000000 
-1.380690 30.817833 1.053190 0.000000 0.000000 0.000000 -2.874049 -6.177860 4.774604 -69.912047 4.537937 5.670348 46.173865 -0.484743 -4.126050 13.640149 -0.563811 3.127674 -0.917280 0.000002 0.000001 0.000000 0.000000 0.000000 -2.874049 -6.177860 4.774604 -10.335031 -7.496675 -6.247887 57.900019 8.697133 3.644043 -44.372010 3.942019 -9.348294 -5.450812 0.000033 0.000001 0.000000 0.000000 0.000000 -2.874049 -6.177860 4.774604 13.963657 0.262743 -3.500540 2.847389 0.187924 -0.917955 0.000000 0.000000 0.000000 0.000000 0.000000 0.000000 2.844039 0.192474 -0.929924 2.777819 0.367201 -0.028367 21.720493 4.314693 -0.576000 0.000000 0.000000 0.000000 2.844039 0.192474 -0.929924 0.640726 -1.333974 -11.005054 0.000000 0.000000 0.000000 17.374232 -24.472988 -55.481657 0.000013 -28.210928 0.000013 0.000000 0.000000 0.000000 2.844039 0.192474 -0.929924 0.180824 7.065465 17.444798 0.000000 0.000000 0.000000 15.301591 17.417524 45.815037 -0.000017 44.069548 0.000023 0.000000 0.000000 0.000000 
-1.362101 30.715313 1.178387 0.000000 0.000000 0.000000 -2.233698 -6.397184 4.497785 -69.192719 3.412131 5.643520 39.799424 -0.438069 -3.384417 17.912873 -0.601734 2.598307 0.141966 0.000002 0.000003 0.000000 0.000000 0.000000 -2.233698 -6.397184 4.497785 -10.932884 -7.564063 -5.996648 58.158105 9.147254 3.665797 -44.591030 3.969110 -9.626976 -5.439892 0.000042 0.000005 0.000000 0.000000 0.000000 -2.233698 -6.397184 4.497785 14.201597 0.533219 -3.105923 2.948588 0.244172 -0.882540 0.000000 0.000000 0.000000 0.000000 0.000000 0.000000 2.944868 0.250127 -0.897077 2.784114 0.379460 -0.086376 21.333143 4.511398 -0.839697 0.000000 0.000000 0.000000 2.944868 0.250127 -0.897077 0.660195 -1.456155 -10.992109 0.000000 0.000000 0.000000 17.052634 -24.459753 -56.653322 0.000010 -27.764825 -0.000002 0.000000 0.000000 0.000000 2.944868 0.250127 -0.897077 0.106667 7.709679 17.533381 0.000000 0.000000 0.000000 15.764215 17.647332 44.412957 -0.000010 45.711813 0.000024 0.000000 0.000000 0.000000 
-1.432260 30.881241 0.926289 0.000000 0.000000 0.000000 -1.086540 -6.212379 4.612567 -68.637391 3.157913 5.433739 37.984646 -0.145262 -3.186595 16.360777 -0.664041 2.337668 1.018073 -0.000001 0.000001 0.000000 0.000000 0.000000 -1.086540 -6.212379 4.612567 -12.760647 -7.672732 -5.676335 57.512071 8.950066 3.642964 -43.249055 3.870231 -9.807514 -5.438351 0.000040 -0.000001 0.000000 0.000000 0.000000 -1.086540 -6.212379 4.612567 14.444247 0.501469 -3.189918 3.017415 0.242814 -0.880788 0.000000 0.000000 0.000000 0.000000 0.000000 0.000000 3.013744 0.247731 -0.895309 2.749063 0.385450 -0.089713 20.651190 4.516997 -0.703624 0.000000 0.000000 0.000000 3.013744 0.247731 -0.895309 0.672238 -1.833742 -10.988873 0.000000 0.000000 0.000000 16.841660 -24.812064 -57.023094 0.000007 -27.474783 0.000003 0.000000 0.000000 0.000000 3.013744 0.247731 -0.895309 0.055486 8.066093 17.607939 0.000000 0.000000 0.000000 15.497266 17.648483 43.807686 -0.000006 46.719539 -0.000013 0.000000 0.000000 0.000000 
